<?xml version="1.0" encoding="utf-8"?>
<!-- Generator: Adobe Illustrator 18.1.0, SVG Export Plug-In . SVG Version: 6.00 Build 0)  -->
<svg version="1.1" id="Layer_1" xmlns="http://www.w3.org/2000/svg" xmlns:xlink="http://www.w3.org/1999/xlink" x="0px" y="0px"
	 viewBox="0 0 500 500" enable-background="new 0 0 500 500" xml:space="preserve">
<path fill="#010101" d="M320.8,226.1l-16.7-41.2c-1.2-3.1-3.5-5.8-5.9-7.8c68.9-72.4-23.4-153.8-33.9-164.2C253,1.7,250,0,250,0
	s-3,1.7-14.2,12.9c-10.5,10.4-102.8,91.8-33.9,164.2c-2.5,2-4.7,4.8-5.9,7.8l-16.7,41.2c-2.5,6.1-3.3,16.5-2.1,23.1l47.6,238.6
	c1.4,6.7,6.7,12.1,11.9,12.1h4c5.2,0,13.7,0,18.9,0h4c5.2,0,10.5-5.4,11.9-12.1L323,249.3C324.3,242.6,323.3,232.2,320.8,226.1z
	 M240.6,198.9h18.9h28.8l11.4,28.1h-99.5l11.4-28.1H240.6z M247,34.2l2.1-2.1c0.2-0.2,0.5-0.5,0.7-0.7c0.2,0.2,0.5,0.5,0.7,0.7
	l2.1,2.1c44.4,42.3,50,72.4,49.4,86.5c-0.7,16.1-10,31.8-27.8,46.5H250h-24.5c-17.7-14.7-27.1-30.4-27.8-46.5
	C197,106.6,202.6,76.6,247,34.2z M258.3,474.9h-16.5L197.3,252h105.6L258.3,474.9z"/>
</svg>
