<svg id="レイヤー_1" data-name="レイヤー 1" xmlns="http://www.w3.org/2000/svg" viewBox="0 0 245.7 375"><defs><style>.cls-1{fill:#231815;fill-rule:evenodd;}</style></defs><title>eraser</title><path class="cls-1" d="M384,157v-5h-1v-3h-1v-3h-1v-3h-1v-3h-1l-2-6h-1v-2h-1v-2h-1l-1-4h-1l-1-3-2-1v-2l-2-1-1-3-4-3v-2l-8-7-2-3h-2l-4-5-3-1-1-2h-2l-1-2-4-1-1-2-4-1c-15.76-9.95-36.38-17-62-17H246v1h-6v1h-6v1h-4v1h-4v1h-3v1l-7,1v1l-5,1v1l-4,1v1l-9,3-1,2-4,1-1,2-4,1-1,2h-2l-1,2-3,1-4,5h-2l-7,8-3,2v2l-4,3v2l-3,2v2l-2,1v2l-2,1v2l-2,2v2h-1v2h-1v2h-1l-1,4h-1c-9.69,22.13-6,67.45-6,99V445H386V185C386,174.78,386.32,164.49,384,157ZM174,142l1-4,2-1v-2l2-1v-2l3-2v-2l3-2,7-8h2l3-4h2l1-2,3-1v-1l4-1,1-2,4-1v-1l6-2v-1h3v-1h2v-1h3V99h3V98h3V97h3V96h5c5.88-1.76,20.45-3.51,26-2l21,1v1h5v1h3v1h3v1h3v1h3v1h2v1h3v1l6,2v1l4,1,1,2,4,1v1l3,1,1,2h2l3,4h2l7,8,3,2v2l3,2v2l2,1v2l2,1,1,4c4.74,7.54,9,15.61,9,28H165C165,157.63,169.26,149.51,174,142ZM363,422H164V193H363Z" transform="translate(-140.31 -70)"/></svg>