<?xml version="1.0" encoding="utf-8"?>
<!-- Generator: Adobe Illustrator 18.1.0, SVG Export Plug-In . SVG Version: 6.00 Build 0)  -->
<svg version="1.1" id="Layer_1" xmlns="http://www.w3.org/2000/svg" xmlns:xlink="http://www.w3.org/1999/xlink" x="0px" y="0px"
	 viewBox="0 0 500 500" enable-background="new 0 0 500 500" xml:space="preserve">
<g>
	<path d="M97.1,163.2c-14.7,13.8-18.2,33.9-7.8,44.9c10.4,11,30.7,9,45.4-4.8c14.7-13.8,18.2-33.9,7.8-44.9
		C132,147.3,111.8,149.5,97.1,163.2z"/>
	<path d="M239.6,119.7c-6.3-13.8-26.3-18.2-44.6-9.8s-28,26.4-21.7,40.2s26.3,18.2,44.6,9.8C236.2,151.4,246.1,133.5,239.6,119.7z"
		/>
	<path d="M300.9,126.3c-18.3,8.4-28,26.4-21.7,40.2s26.3,18.2,44.6,9.8c18.3-8.4,28-26.4,21.7-40.2
		C339.1,122.4,319.1,118,300.9,126.3z"/>
	<path d="M399.4,234.8c18.3-8.4,28-26.4,21.7-40.2c-6.3-13.8-26.3-18.2-44.6-9.8s-28,26.4-21.7,40.2
		C361.1,238.7,381.1,243.1,399.4,234.8z"/>
	<path d="M380.8,276.5c-18.3,8.4-28,26.4-21.7,40.2c6.3,13.8,26.3,18.2,44.6,9.8c18.3-8.4,28-26.4,21.7-40.2
		C419.1,272.5,399.1,268.1,380.8,276.5z"/>
	<path d="M261.6,303c-30.2,6.9-50.8,30.5-45.6,52.5c5,22.2,33.8,34.3,64,27.4c30.2-6.9,50.8-30.5,45.8-52.5
		C320.6,308.3,291.8,296.1,261.6,303z"/>
	<path d="M497.8,208.5c-15.4-92-111.4-158.9-228.2-158.9c-17.3,0-35.1,1.5-52.4,4.4C80.5,76.9-15.9,183.4,2.1,291.4
		c1.8,10.9,5.1,21.3,9.1,31.3c0.3,1.8,0.9,3.7,1.9,5.3c0,0,0.1,0.1,0.1,0.3c0.1,0.1,0.1,0.4,0.1,0.6h0.1
		c2.3,3.5,12.3,16.9,32.9,21.6c22.2,5.1,47.8-1.3,76.5-19.5c14.7-9.2,23.6-9.8,25.2-7.2c3.5,5.4,0.7,21.7-12.6,31
		c-29.1,20.1-39.5,39.5-30.5,57.7c7.5,15.3,29.2,23.8,52.2,28.5c22.9,6,47.3,9.4,72.8,9.4c17.3,0,35.1-1.5,52.4-4.4
		C419.4,423.1,516,316.7,497.8,208.5z M277.6,414.9c-15.7,2.6-31.6,4-47.3,4c-31.7,0-61.3-4.5-87.9-14.4c-7.9-5-2.8-12.2-2.3-12.8
		c2.9-2.9,7.2-6.5,13.6-10.9c25.2-17.3,35.2-52.8,21-74.4c-10.3-15.6-33.6-24.2-68.5-2.1c-43.9,27.7-61.3,12.8-65.3,8.1
		c-3.4-8.4-6-17.2-7.5-26.1c-15.3-90.8,69.6-181.1,189-201.1c15.7-2.6,31.6-4,47.3-4c101.3,0,184.2,55.8,197,132.5
		C481.9,304.6,397.1,394.9,277.6,414.9z"/>
</g>
</svg>
